<svg width="198" height="94" viewBox="0 0 198 94" fill="none" xmlns="http://www.w3.org/2000/svg">
<g filter="url(#filter0_d_22618_638)">
<rect x="15" y="10" width="168" height="64" rx="32" fill="#2F71E5"/>
</g>
<path d="M79.0664 44.7041C79.0664 44.1416 78.8672 43.708 78.4688 43.4033C78.0762 43.0986 77.3643 42.791 76.333 42.4805C75.3018 42.1699 74.4814 41.8242 73.8721 41.4434C72.7061 40.7109 72.123 39.7559 72.123 38.5781C72.123 37.5469 72.542 36.6973 73.3799 36.0293C74.2236 35.3613 75.3164 35.0273 76.6582 35.0273C77.5488 35.0273 78.3428 35.1914 79.04 35.5195C79.7373 35.8477 80.2852 36.3164 80.6836 36.9258C81.082 37.5293 81.2812 38.2002 81.2812 38.9385H79.0664C79.0664 38.2705 78.8555 37.749 78.4336 37.374C78.0176 36.9932 77.4199 36.8027 76.6406 36.8027C75.9141 36.8027 75.3486 36.958 74.9443 37.2686C74.5459 37.5791 74.3467 38.0127 74.3467 38.5693C74.3467 39.0381 74.5635 39.4307 74.9971 39.7471C75.4307 40.0576 76.1455 40.3623 77.1416 40.6611C78.1377 40.9541 78.9375 41.291 79.541 41.6719C80.1445 42.0469 80.5869 42.4805 80.8682 42.9727C81.1494 43.459 81.29 44.0303 81.29 44.6865C81.29 45.7529 80.8799 46.6025 80.0596 47.2354C79.2451 47.8623 78.1377 48.1758 76.7373 48.1758C75.8115 48.1758 74.959 48.0059 74.1797 47.666C73.4062 47.3203 72.8027 46.8457 72.3691 46.2422C71.9414 45.6387 71.7275 44.9355 71.7275 44.1328H73.9512C73.9512 44.8594 74.1914 45.4219 74.6719 45.8203C75.1523 46.2188 75.8408 46.418 76.7373 46.418C77.5107 46.418 78.0908 46.2627 78.4775 45.9521C78.8701 45.6357 79.0664 45.2197 79.0664 44.7041ZM87.2227 48.1758C85.8691 48.1758 84.7705 47.751 83.9268 46.9014C83.0889 46.0459 82.6699 44.9092 82.6699 43.4912V43.2275C82.6699 42.2783 82.8516 41.4316 83.2148 40.6875C83.584 39.9375 84.0996 39.3545 84.7617 38.9385C85.4238 38.5225 86.1621 38.3145 86.9766 38.3145C88.2715 38.3145 89.2705 38.7275 89.9736 39.5537C90.6826 40.3799 91.0371 41.5488 91.0371 43.0605V43.9219H84.8232C84.8877 44.707 85.1484 45.3281 85.6055 45.7852C86.0684 46.2422 86.6484 46.4707 87.3457 46.4707C88.3242 46.4707 89.1211 46.0752 89.7363 45.2842L90.8877 46.3828C90.5068 46.9512 89.9971 47.3936 89.3584 47.71C88.7256 48.0205 88.0137 48.1758 87.2227 48.1758ZM86.9678 40.0283C86.3818 40.0283 85.9072 40.2334 85.5439 40.6436C85.1865 41.0537 84.958 41.625 84.8584 42.3574H88.9277V42.1992C88.8809 41.4844 88.6904 40.9453 88.3564 40.582C88.0225 40.2129 87.5596 40.0283 86.9678 40.0283ZM98.3848 48C98.291 47.8184 98.209 47.5225 98.1387 47.1123C97.459 47.8213 96.627 48.1758 95.6426 48.1758C94.6875 48.1758 93.9082 47.9033 93.3047 47.3584C92.7012 46.8135 92.3994 46.1396 92.3994 45.3369C92.3994 44.3232 92.7744 43.5469 93.5244 43.0078C94.2803 42.4629 95.3584 42.1904 96.7588 42.1904H98.0684V41.5664C98.0684 41.0742 97.9307 40.6816 97.6553 40.3887C97.3799 40.0898 96.9609 39.9404 96.3984 39.9404C95.9121 39.9404 95.5137 40.0635 95.2031 40.3096C94.8926 40.5498 94.7373 40.8574 94.7373 41.2324H92.6016C92.6016 40.7109 92.7744 40.2246 93.1201 39.7734C93.4658 39.3164 93.9346 38.959 94.5264 38.7012C95.124 38.4434 95.7891 38.3145 96.5215 38.3145C97.6348 38.3145 98.5225 38.5957 99.1846 39.1582C99.8467 39.7148 100.187 40.5 100.204 41.5137V45.8027C100.204 46.6582 100.324 47.3408 100.564 47.8506V48H98.3848ZM96.0381 46.4619C96.46 46.4619 96.8555 46.3594 97.2246 46.1543C97.5996 45.9492 97.8809 45.6738 98.0684 45.3281V43.5352H96.917C96.126 43.5352 95.5312 43.6729 95.1328 43.9482C94.7344 44.2236 94.5352 44.6133 94.5352 45.1172C94.5352 45.5273 94.6699 45.8555 94.9395 46.1016C95.2148 46.3418 95.5811 46.4619 96.0381 46.4619ZM107.42 40.4414C107.139 40.3945 106.849 40.3711 106.55 40.3711C105.571 40.3711 104.912 40.7461 104.572 41.4961V48H102.437V38.4902H104.476L104.528 39.5537C105.044 38.7275 105.759 38.3145 106.673 38.3145C106.978 38.3145 107.229 38.3555 107.429 38.4375L107.42 40.4414ZM112.5 46.4707C113.033 46.4707 113.476 46.3154 113.827 46.0049C114.179 45.6943 114.366 45.3105 114.39 44.8535H116.402C116.379 45.4453 116.194 45.999 115.849 46.5146C115.503 47.0244 115.034 47.4287 114.442 47.7275C113.851 48.0264 113.212 48.1758 112.526 48.1758C111.196 48.1758 110.142 47.7451 109.362 46.8838C108.583 46.0225 108.193 44.833 108.193 43.3154V43.0957C108.193 41.6484 108.58 40.4912 109.354 39.624C110.127 38.751 111.182 38.3145 112.518 38.3145C113.648 38.3145 114.568 38.6455 115.277 39.3076C115.992 39.9639 116.367 40.8281 116.402 41.9004H114.39C114.366 41.3555 114.179 40.9072 113.827 40.5557C113.481 40.2041 113.039 40.0283 112.5 40.0283C111.809 40.0283 111.275 40.2803 110.9 40.7842C110.525 41.2822 110.335 42.041 110.329 43.0605V43.4033C110.329 44.4346 110.514 45.2051 110.883 45.7148C111.258 46.2188 111.797 46.4707 112.5 46.4707ZM120.12 39.5273C120.817 38.7188 121.699 38.3145 122.766 38.3145C124.793 38.3145 125.821 39.4717 125.851 41.7861V48H123.715V41.8652C123.715 41.209 123.571 40.7461 123.284 40.4766C123.003 40.2012 122.587 40.0635 122.036 40.0635C121.181 40.0635 120.542 40.4443 120.12 41.2061V48H117.984V34.5H120.12V39.5273Z" fill="white"/>
<defs>
<filter id="filter0_d_22618_638" x="0" y="0" width="198" height="94" filterUnits="userSpaceOnUse" color-interpolation-filters="sRGB">
<feFlood flood-opacity="0" result="BackgroundImageFix"/>
<feColorMatrix in="SourceAlpha" type="matrix" values="0 0 0 0 0 0 0 0 0 0 0 0 0 0 0 0 0 0 127 0" result="hardAlpha"/>
<feOffset dy="5"/>
<feGaussianBlur stdDeviation="7.5"/>
<feColorMatrix type="matrix" values="0 0 0 0 0.0534375 0 0 0 0 0.101475 0 0 0 0 0.225 0 0 0 0.2 0"/>
<feBlend mode="normal" in2="BackgroundImageFix" result="effect1_dropShadow_22618_638"/>
<feBlend mode="normal" in="SourceGraphic" in2="effect1_dropShadow_22618_638" result="shape"/>
</filter>
</defs>
</svg>
