<svg width="288" height="64" viewBox="0 0 288 64" fill="none" xmlns="http://www.w3.org/2000/svg">
<rect width="288" height="64" rx="32" fill="white"/>
<path d="M107.138 34.7041C107.138 34.1416 106.938 33.708 106.54 33.4033C106.147 33.0986 105.436 32.791 104.404 32.4805C103.373 32.1699 102.553 31.8242 101.943 31.4434C100.777 30.7109 100.194 29.7559 100.194 28.5781C100.194 27.5469 100.613 26.6973 101.451 26.0293C102.295 25.3613 103.388 25.0273 104.729 25.0273C105.62 25.0273 106.414 25.1914 107.111 25.5195C107.809 25.8477 108.356 26.3164 108.755 26.9258C109.153 27.5293 109.353 28.2002 109.353 28.9385H107.138C107.138 28.2705 106.927 27.749 106.505 27.374C106.089 26.9932 105.491 26.8027 104.712 26.8027C103.985 26.8027 103.42 26.958 103.016 27.2686C102.617 27.5791 102.418 28.0127 102.418 28.5693C102.418 29.0381 102.635 29.4307 103.068 29.7471C103.502 30.0576 104.217 30.3623 105.213 30.6611C106.209 30.9541 107.009 31.291 107.612 31.6719C108.216 32.0469 108.658 32.4805 108.939 32.9727C109.221 33.459 109.361 34.0303 109.361 34.6865C109.361 35.7529 108.951 36.6025 108.131 37.2354C107.316 37.8623 106.209 38.1758 104.809 38.1758C103.883 38.1758 103.03 38.0059 102.251 37.666C101.478 37.3203 100.874 36.8457 100.44 36.2422C100.013 35.6387 99.7988 34.9355 99.7988 34.1328H102.022C102.022 34.8594 102.263 35.4219 102.743 35.8203C103.224 36.2188 103.912 36.418 104.809 36.418C105.582 36.418 106.162 36.2627 106.549 35.9521C106.941 35.6357 107.138 35.2197 107.138 34.7041ZM113.211 29.5273C113.908 28.7188 114.79 28.3145 115.856 28.3145C117.884 28.3145 118.912 29.4717 118.941 31.7861V38H116.806V31.8652C116.806 31.209 116.662 30.7461 116.375 30.4766C116.094 30.2012 115.678 30.0635 115.127 30.0635C114.271 30.0635 113.633 30.4443 113.211 31.2061V38H111.075V24.5H113.211V29.5273ZM120.708 33.1572C120.708 32.2256 120.893 31.3877 121.262 30.6436C121.631 29.8936 122.149 29.3193 122.817 28.9209C123.485 28.5166 124.253 28.3145 125.12 28.3145C126.403 28.3145 127.443 28.7275 128.24 29.5537C129.043 30.3799 129.477 31.4756 129.541 32.8408L129.55 33.3418C129.55 34.2793 129.368 35.1172 129.005 35.8555C128.647 36.5938 128.132 37.165 127.458 37.5693C126.79 37.9736 126.017 38.1758 125.138 38.1758C123.796 38.1758 122.721 37.7305 121.912 36.8398C121.109 35.9434 120.708 34.751 120.708 33.2627V33.1572ZM122.844 33.3418C122.844 34.3203 123.046 35.0879 123.45 35.6445C123.854 36.1953 124.417 36.4707 125.138 36.4707C125.858 36.4707 126.418 36.1895 126.816 35.627C127.221 35.0645 127.423 34.2412 127.423 33.1572C127.423 32.1963 127.215 31.4346 126.799 30.8721C126.389 30.3096 125.829 30.0283 125.12 30.0283C124.423 30.0283 123.869 30.3066 123.459 30.8633C123.049 31.4141 122.844 32.2402 122.844 33.3418ZM139.71 35.0557L141.222 28.4902H143.305L140.712 38H138.954L136.915 31.4697L134.911 38H133.153L130.552 28.4902H132.635L134.173 34.9854L136.124 28.4902H137.732L139.71 35.0557ZM151.224 28.4902L151.285 29.4834C151.953 28.7041 152.867 28.3145 154.027 28.3145C155.299 28.3145 156.169 28.8008 156.638 29.7734C157.329 28.8008 158.302 28.3145 159.556 28.3145C160.604 28.3145 161.384 28.6045 161.894 29.1846C162.409 29.7646 162.673 30.6201 162.685 31.751V38H160.549V31.8125C160.549 31.209 160.417 30.7666 160.153 30.4854C159.89 30.2041 159.453 30.0635 158.844 30.0635C158.357 30.0635 157.959 30.1953 157.648 30.459C157.344 30.7168 157.13 31.0566 157.007 31.4785L157.016 38H154.88V31.7422C154.851 30.623 154.279 30.0635 153.166 30.0635C152.311 30.0635 151.704 30.4121 151.347 31.1094V38H149.211V28.4902H151.224ZM164.478 33.1572C164.478 32.2256 164.662 31.3877 165.031 30.6436C165.4 29.8936 165.919 29.3193 166.587 28.9209C167.255 28.5166 168.022 28.3145 168.89 28.3145C170.173 28.3145 171.213 28.7275 172.01 29.5537C172.812 30.3799 173.246 31.4756 173.311 32.8408L173.319 33.3418C173.319 34.2793 173.138 35.1172 172.774 35.8555C172.417 36.5938 171.901 37.165 171.228 37.5693C170.56 37.9736 169.786 38.1758 168.907 38.1758C167.565 38.1758 166.49 37.7305 165.682 36.8398C164.879 35.9434 164.478 34.751 164.478 33.2627V33.1572ZM166.613 33.3418C166.613 34.3203 166.815 35.0879 167.22 35.6445C167.624 36.1953 168.187 36.4707 168.907 36.4707C169.628 36.4707 170.188 36.1895 170.586 35.627C170.99 35.0645 171.192 34.2412 171.192 33.1572C171.192 32.1963 170.984 31.4346 170.568 30.8721C170.158 30.3096 169.599 30.0283 168.89 30.0283C168.192 30.0283 167.639 30.3066 167.229 30.8633C166.818 31.4141 166.613 32.2402 166.613 33.3418ZM180.104 30.4414C179.823 30.3945 179.533 30.3711 179.234 30.3711C178.256 30.3711 177.597 30.7461 177.257 31.4961V38H175.121V28.4902H177.16L177.213 29.5537C177.729 28.7275 178.443 28.3145 179.357 28.3145C179.662 28.3145 179.914 28.3555 180.113 28.4375L180.104 30.4414ZM185.466 38.1758C184.112 38.1758 183.014 37.751 182.17 36.9014C181.332 36.0459 180.913 34.9092 180.913 33.4912V33.2275C180.913 32.2783 181.095 31.4316 181.458 30.6875C181.827 29.9375 182.343 29.3545 183.005 28.9385C183.667 28.5225 184.405 28.3145 185.22 28.3145C186.515 28.3145 187.514 28.7275 188.217 29.5537C188.926 30.3799 189.28 31.5488 189.28 33.0605V33.9219H183.066C183.131 34.707 183.392 35.3281 183.849 35.7852C184.312 36.2422 184.892 36.4707 185.589 36.4707C186.567 36.4707 187.364 36.0752 187.979 35.2842L189.131 36.3828C188.75 36.9512 188.24 37.3936 187.602 37.71C186.969 38.0205 186.257 38.1758 185.466 38.1758ZM185.211 30.0283C184.625 30.0283 184.15 30.2334 183.787 30.6436C183.43 31.0537 183.201 31.625 183.102 32.3574H187.171V32.1992C187.124 31.4844 186.934 30.9453 186.6 30.582C186.266 30.2129 185.803 30.0283 185.211 30.0283Z" fill="#1A1B22"/>
</svg>
