<svg width="390" height="94" viewBox="0 0 390 94" fill="none" xmlns="http://www.w3.org/2000/svg">
<g filter="url(#filter0_d_22618_694)">
<rect x="15" y="10" width="360" height="64" rx="32" fill="#2F71E5"/>
</g>
<path d="M172.825 44.7041C172.825 44.1416 172.626 43.708 172.228 43.4033C171.835 43.0986 171.123 42.791 170.092 42.4805C169.061 42.1699 168.24 41.8242 167.631 41.4434C166.465 40.7109 165.882 39.7559 165.882 38.5781C165.882 37.5469 166.301 36.6973 167.139 36.0293C167.982 35.3613 169.075 35.0273 170.417 35.0273C171.308 35.0273 172.102 35.1914 172.799 35.5195C173.496 35.8477 174.044 36.3164 174.442 36.9258C174.841 37.5293 175.04 38.2002 175.04 38.9385H172.825C172.825 38.2705 172.614 37.749 172.192 37.374C171.776 36.9932 171.179 36.8027 170.399 36.8027C169.673 36.8027 169.107 36.958 168.703 37.2686C168.305 37.5791 168.105 38.0127 168.105 38.5693C168.105 39.0381 168.322 39.4307 168.756 39.7471C169.189 40.0576 169.904 40.3623 170.9 40.6611C171.896 40.9541 172.696 41.291 173.3 41.6719C173.903 42.0469 174.346 42.4805 174.627 42.9727C174.908 43.459 175.049 44.0303 175.049 44.6865C175.049 45.7529 174.639 46.6025 173.818 47.2354C173.004 47.8623 171.896 48.1758 170.496 48.1758C169.57 48.1758 168.718 48.0059 167.938 47.666C167.165 47.3203 166.562 46.8457 166.128 46.2422C165.7 45.6387 165.486 44.9355 165.486 44.1328H167.71C167.71 44.8594 167.95 45.4219 168.431 45.8203C168.911 46.2188 169.6 46.418 170.496 46.418C171.27 46.418 171.85 46.2627 172.236 45.9521C172.629 45.6357 172.825 45.2197 172.825 44.7041ZM179.065 48H176.93V38.4902H179.065V48ZM176.798 36.0205C176.798 35.6924 176.9 35.4199 177.105 35.2031C177.316 34.9863 177.615 34.8779 178.002 34.8779C178.389 34.8779 178.688 34.9863 178.898 35.2031C179.109 35.4199 179.215 35.6924 179.215 36.0205C179.215 36.3428 179.109 36.6123 178.898 36.8291C178.688 37.04 178.389 37.1455 178.002 37.1455C177.615 37.1455 177.316 37.04 177.105 36.8291C176.9 36.6123 176.798 36.3428 176.798 36.0205ZM181.025 43.1748C181.025 41.6982 181.371 40.5205 182.062 39.6416C182.76 38.7568 183.683 38.3145 184.831 38.3145C185.915 38.3145 186.768 38.6924 187.389 39.4482L187.485 38.4902H189.41V47.71C189.41 48.958 189.021 49.9424 188.241 50.6631C187.468 51.3838 186.422 51.7441 185.104 51.7441C184.406 51.7441 183.724 51.5977 183.056 51.3047C182.394 51.0176 181.89 50.6396 181.544 50.1709L182.555 48.8877C183.211 49.667 184.02 50.0566 184.98 50.0566C185.689 50.0566 186.249 49.8633 186.659 49.4766C187.069 49.0957 187.274 48.5332 187.274 47.7891V47.1475C186.659 47.833 185.839 48.1758 184.813 48.1758C183.7 48.1758 182.789 47.7334 182.08 46.8486C181.377 45.9639 181.025 44.7393 181.025 43.1748ZM183.152 43.3594C183.152 44.3145 183.346 45.0674 183.732 45.6182C184.125 46.1631 184.667 46.4355 185.358 46.4355C186.22 46.4355 186.858 46.0664 187.274 45.3281V41.1445C186.87 40.4238 186.237 40.0635 185.376 40.0635C184.673 40.0635 184.125 40.3418 183.732 40.8984C183.346 41.4551 183.152 42.2754 183.152 43.3594ZM193.594 38.4902L193.655 39.5889C194.358 38.7393 195.281 38.3145 196.424 38.3145C198.404 38.3145 199.412 39.4482 199.447 41.7158V48H197.312V41.8389C197.312 41.2354 197.18 40.79 196.916 40.5029C196.658 40.21 196.233 40.0635 195.642 40.0635C194.78 40.0635 194.139 40.4531 193.717 41.2324V48H191.581V38.4902H193.594ZM211.875 47.0684C211.248 47.8066 210.357 48.1758 209.203 48.1758C208.172 48.1758 207.39 47.874 206.856 47.2705C206.329 46.667 206.065 45.7939 206.065 44.6514V38.4902H208.201V44.625C208.201 45.832 208.702 46.4355 209.704 46.4355C210.741 46.4355 211.441 46.0635 211.805 45.3193V38.4902H213.94V48H211.928L211.875 47.0684ZM224.443 43.3418C224.443 44.8125 224.109 45.9873 223.441 46.8662C222.773 47.7393 221.877 48.1758 220.752 48.1758C219.709 48.1758 218.874 47.833 218.247 47.1475V51.6562H216.111V38.4902H218.08L218.168 39.457C218.795 38.6953 219.647 38.3145 220.726 38.3145C221.886 38.3145 222.794 38.748 223.45 39.6152C224.112 40.4766 224.443 41.6748 224.443 43.21V43.3418ZM222.316 43.1572C222.316 42.208 222.126 41.4551 221.745 40.8984C221.37 40.3418 220.831 40.0635 220.128 40.0635C219.255 40.0635 218.628 40.4238 218.247 41.1445V45.3633C218.634 46.1016 219.267 46.4707 220.146 46.4707C220.825 46.4707 221.355 46.1982 221.736 45.6533C222.123 45.1025 222.316 44.2705 222.316 43.1572Z" fill="white"/>
<defs>
<filter id="filter0_d_22618_694" x="0" y="0" width="390" height="94" filterUnits="userSpaceOnUse" color-interpolation-filters="sRGB">
<feFlood flood-opacity="0" result="BackgroundImageFix"/>
<feColorMatrix in="SourceAlpha" type="matrix" values="0 0 0 0 0 0 0 0 0 0 0 0 0 0 0 0 0 0 127 0" result="hardAlpha"/>
<feOffset dy="5"/>
<feGaussianBlur stdDeviation="7.5"/>
<feColorMatrix type="matrix" values="0 0 0 0 0.0534375 0 0 0 0 0.101475 0 0 0 0 0.225 0 0 0 0.2 0"/>
<feBlend mode="normal" in2="BackgroundImageFix" result="effect1_dropShadow_22618_694"/>
<feBlend mode="normal" in="SourceGraphic" in2="effect1_dropShadow_22618_694" result="shape"/>
</filter>
</defs>
</svg>
