<svg width="390" height="94" viewBox="0 0 390 94" fill="none" xmlns="http://www.w3.org/2000/svg">
<g filter="url(#filter0_d_22618_878)">
<rect x="15" y="10" width="360" height="64" rx="32" fill="#2F71E5"/>
</g>
<path d="M175.585 44.7041C175.585 44.1416 175.386 43.708 174.987 43.4033C174.595 43.0986 173.883 42.791 172.852 42.4805C171.82 42.1699 171 41.8242 170.391 41.4434C169.225 40.7109 168.642 39.7559 168.642 38.5781C168.642 37.5469 169.061 36.6973 169.898 36.0293C170.742 35.3613 171.835 35.0273 173.177 35.0273C174.067 35.0273 174.861 35.1914 175.559 35.5195C176.256 35.8477 176.804 36.3164 177.202 36.9258C177.601 37.5293 177.8 38.2002 177.8 38.9385H175.585C175.585 38.2705 175.374 37.749 174.952 37.374C174.536 36.9932 173.938 36.8027 173.159 36.8027C172.433 36.8027 171.867 36.958 171.463 37.2686C171.064 37.5791 170.865 38.0127 170.865 38.5693C170.865 39.0381 171.082 39.4307 171.516 39.7471C171.949 40.0576 172.664 40.3623 173.66 40.6611C174.656 40.9541 175.456 41.291 176.06 41.6719C176.663 42.0469 177.105 42.4805 177.387 42.9727C177.668 43.459 177.809 44.0303 177.809 44.6865C177.809 45.7529 177.398 46.6025 176.578 47.2354C175.764 47.8623 174.656 48.1758 173.256 48.1758C172.33 48.1758 171.478 48.0059 170.698 47.666C169.925 47.3203 169.321 46.8457 168.888 46.2422C168.46 45.6387 168.246 44.9355 168.246 44.1328H170.47C170.47 44.8594 170.71 45.4219 171.19 45.8203C171.671 46.2188 172.359 46.418 173.256 46.418C174.029 46.418 174.609 46.2627 174.996 45.9521C175.389 45.6357 175.585 45.2197 175.585 44.7041ZM181.825 48H179.689V38.4902H181.825V48ZM179.558 36.0205C179.558 35.6924 179.66 35.4199 179.865 35.2031C180.076 34.9863 180.375 34.8779 180.762 34.8779C181.148 34.8779 181.447 34.9863 181.658 35.2031C181.869 35.4199 181.975 35.6924 181.975 36.0205C181.975 36.3428 181.869 36.6123 181.658 36.8291C181.447 37.04 181.148 37.1455 180.762 37.1455C180.375 37.1455 180.076 37.04 179.865 36.8291C179.66 36.6123 179.558 36.3428 179.558 36.0205ZM183.785 43.1748C183.785 41.6982 184.131 40.5205 184.822 39.6416C185.52 38.7568 186.442 38.3145 187.591 38.3145C188.675 38.3145 189.527 38.6924 190.148 39.4482L190.245 38.4902H192.17V47.71C192.17 48.958 191.78 49.9424 191.001 50.6631C190.228 51.3838 189.182 51.7441 187.863 51.7441C187.166 51.7441 186.483 51.5977 185.815 51.3047C185.153 51.0176 184.649 50.6396 184.304 50.1709L185.314 48.8877C185.971 49.667 186.779 50.0566 187.74 50.0566C188.449 50.0566 189.009 49.8633 189.419 49.4766C189.829 49.0957 190.034 48.5332 190.034 47.7891V47.1475C189.419 47.833 188.599 48.1758 187.573 48.1758C186.46 48.1758 185.549 47.7334 184.84 46.8486C184.137 45.9639 183.785 44.7393 183.785 43.1748ZM185.912 43.3594C185.912 44.3145 186.105 45.0674 186.492 45.6182C186.885 46.1631 187.427 46.4355 188.118 46.4355C188.979 46.4355 189.618 46.0664 190.034 45.3281V41.1445C189.63 40.4238 188.997 40.0635 188.136 40.0635C187.433 40.0635 186.885 40.3418 186.492 40.8984C186.105 41.4551 185.912 42.2754 185.912 43.3594ZM196.354 38.4902L196.415 39.5889C197.118 38.7393 198.041 38.3145 199.184 38.3145C201.164 38.3145 202.172 39.4482 202.207 41.7158V48H200.071V41.8389C200.071 41.2354 199.939 40.79 199.676 40.5029C199.418 40.21 198.993 40.0635 198.401 40.0635C197.54 40.0635 196.898 40.4531 196.477 41.2324V48H194.341V38.4902H196.354ZM211.146 48H209.01V38.4902H211.146V48ZM208.878 36.0205C208.878 35.6924 208.98 35.4199 209.186 35.2031C209.396 34.9863 209.695 34.8779 210.082 34.8779C210.469 34.8779 210.768 34.9863 210.979 35.2031C211.189 35.4199 211.295 35.6924 211.295 36.0205C211.295 36.3428 211.189 36.6123 210.979 36.8291C210.768 37.04 210.469 37.1455 210.082 37.1455C209.695 37.1455 209.396 37.04 209.186 36.8291C208.98 36.6123 208.878 36.3428 208.878 36.0205ZM215.461 38.4902L215.522 39.5889C216.226 38.7393 217.148 38.3145 218.291 38.3145C220.271 38.3145 221.279 39.4482 221.314 41.7158V48H219.179V41.8389C219.179 41.2354 219.047 40.79 218.783 40.5029C218.525 40.21 218.101 40.0635 217.509 40.0635C216.647 40.0635 216.006 40.4531 215.584 41.2324V48H213.448V38.4902H215.461Z" fill="white"/>
<defs>
<filter id="filter0_d_22618_878" x="0" y="0" width="390" height="94" filterUnits="userSpaceOnUse" color-interpolation-filters="sRGB">
<feFlood flood-opacity="0" result="BackgroundImageFix"/>
<feColorMatrix in="SourceAlpha" type="matrix" values="0 0 0 0 0 0 0 0 0 0 0 0 0 0 0 0 0 0 127 0" result="hardAlpha"/>
<feOffset dy="5"/>
<feGaussianBlur stdDeviation="7.5"/>
<feColorMatrix type="matrix" values="0 0 0 0 0.0534375 0 0 0 0 0.101475 0 0 0 0 0.225 0 0 0 0.2 0"/>
<feBlend mode="normal" in2="BackgroundImageFix" result="effect1_dropShadow_22618_878"/>
<feBlend mode="normal" in="SourceGraphic" in2="effect1_dropShadow_22618_878" result="shape"/>
</filter>
</defs>
</svg>
