<svg width="360" height="64" viewBox="0 0 360 64" fill="none" xmlns="http://www.w3.org/2000/svg">
<rect width="360" height="64" rx="32" fill="#E6E8EB"/>
<path d="M157.825 34.7041C157.825 34.1416 157.626 33.708 157.228 33.4033C156.835 33.0986 156.123 32.791 155.092 32.4805C154.061 32.1699 153.24 31.8242 152.631 31.4434C151.465 30.7109 150.882 29.7559 150.882 28.5781C150.882 27.5469 151.301 26.6973 152.139 26.0293C152.982 25.3613 154.075 25.0273 155.417 25.0273C156.308 25.0273 157.102 25.1914 157.799 25.5195C158.496 25.8477 159.044 26.3164 159.442 26.9258C159.841 27.5293 160.04 28.2002 160.04 28.9385H157.825C157.825 28.2705 157.614 27.749 157.192 27.374C156.776 26.9932 156.179 26.8027 155.399 26.8027C154.673 26.8027 154.107 26.958 153.703 27.2686C153.305 27.5791 153.105 28.0127 153.105 28.5693C153.105 29.0381 153.322 29.4307 153.756 29.7471C154.189 30.0576 154.904 30.3623 155.9 30.6611C156.896 30.9541 157.696 31.291 158.3 31.6719C158.903 32.0469 159.346 32.4805 159.627 32.9727C159.908 33.459 160.049 34.0303 160.049 34.6865C160.049 35.7529 159.639 36.6025 158.818 37.2354C158.004 37.8623 156.896 38.1758 155.496 38.1758C154.57 38.1758 153.718 38.0059 152.938 37.666C152.165 37.3203 151.562 36.8457 151.128 36.2422C150.7 35.6387 150.486 34.9355 150.486 34.1328H152.71C152.71 34.8594 152.95 35.4219 153.431 35.8203C153.911 36.2188 154.6 36.418 155.496 36.418C156.27 36.418 156.85 36.2627 157.236 35.9521C157.629 35.6357 157.825 35.2197 157.825 34.7041ZM164.065 38H161.93V28.4902H164.065V38ZM161.798 26.0205C161.798 25.6924 161.9 25.4199 162.105 25.2031C162.316 24.9863 162.615 24.8779 163.002 24.8779C163.389 24.8779 163.688 24.9863 163.898 25.2031C164.109 25.4199 164.215 25.6924 164.215 26.0205C164.215 26.3428 164.109 26.6123 163.898 26.8291C163.688 27.04 163.389 27.1455 163.002 27.1455C162.615 27.1455 162.316 27.04 162.105 26.8291C161.9 26.6123 161.798 26.3428 161.798 26.0205ZM166.025 33.1748C166.025 31.6982 166.371 30.5205 167.062 29.6416C167.76 28.7568 168.683 28.3145 169.831 28.3145C170.915 28.3145 171.768 28.6924 172.389 29.4482L172.485 28.4902H174.41V37.71C174.41 38.958 174.021 39.9424 173.241 40.6631C172.468 41.3838 171.422 41.7441 170.104 41.7441C169.406 41.7441 168.724 41.5977 168.056 41.3047C167.394 41.0176 166.89 40.6396 166.544 40.1709L167.555 38.8877C168.211 39.667 169.02 40.0566 169.98 40.0566C170.689 40.0566 171.249 39.8633 171.659 39.4766C172.069 39.0957 172.274 38.5332 172.274 37.7891V37.1475C171.659 37.833 170.839 38.1758 169.813 38.1758C168.7 38.1758 167.789 37.7334 167.08 36.8486C166.377 35.9639 166.025 34.7393 166.025 33.1748ZM168.152 33.3594C168.152 34.3145 168.346 35.0674 168.732 35.6182C169.125 36.1631 169.667 36.4355 170.358 36.4355C171.22 36.4355 171.858 36.0664 172.274 35.3281V31.1445C171.87 30.4238 171.237 30.0635 170.376 30.0635C169.673 30.0635 169.125 30.3418 168.732 30.8984C168.346 31.4551 168.152 32.2754 168.152 33.3594ZM178.594 28.4902L178.655 29.5889C179.358 28.7393 180.281 28.3145 181.424 28.3145C183.404 28.3145 184.412 29.4482 184.447 31.7158V38H182.312V31.8389C182.312 31.2354 182.18 30.79 181.916 30.5029C181.658 30.21 181.233 30.0635 180.642 30.0635C179.78 30.0635 179.139 30.4531 178.717 31.2324V38H176.581V28.4902H178.594ZM196.875 37.0684C196.248 37.8066 195.357 38.1758 194.203 38.1758C193.172 38.1758 192.39 37.874 191.856 37.2705C191.329 36.667 191.065 35.7939 191.065 34.6514V28.4902H193.201V34.625C193.201 35.832 193.702 36.4355 194.704 36.4355C195.741 36.4355 196.441 36.0635 196.805 35.3193V28.4902H198.94V38H196.928L196.875 37.0684ZM209.443 33.3418C209.443 34.8125 209.109 35.9873 208.441 36.8662C207.773 37.7393 206.877 38.1758 205.752 38.1758C204.709 38.1758 203.874 37.833 203.247 37.1475V41.6562H201.111V28.4902H203.08L203.168 29.457C203.795 28.6953 204.647 28.3145 205.726 28.3145C206.886 28.3145 207.794 28.748 208.45 29.6152C209.112 30.4766 209.443 31.6748 209.443 33.21V33.3418ZM207.316 33.1572C207.316 32.208 207.126 31.4551 206.745 30.8984C206.37 30.3418 205.831 30.0635 205.128 30.0635C204.255 30.0635 203.628 30.4238 203.247 31.1445V35.3633C203.634 36.1016 204.267 36.4707 205.146 36.4707C205.825 36.4707 206.355 36.1982 206.736 35.6533C207.123 35.1025 207.316 34.2705 207.316 33.1572Z" fill="#B6BCBF"/>
</svg>
