<svg width="358" height="64" viewBox="0 0 358 64" fill="none" xmlns="http://www.w3.org/2000/svg">
<rect width="358" height="64" rx="32" fill="#E6E8EB"/>
<path d="M159.585 34.7041C159.585 34.1416 159.386 33.708 158.987 33.4033C158.595 33.0986 157.883 32.791 156.852 32.4805C155.82 32.1699 155 31.8242 154.391 31.4434C153.225 30.7109 152.642 29.7559 152.642 28.5781C152.642 27.5469 153.061 26.6973 153.898 26.0293C154.742 25.3613 155.835 25.0273 157.177 25.0273C158.067 25.0273 158.861 25.1914 159.559 25.5195C160.256 25.8477 160.804 26.3164 161.202 26.9258C161.601 27.5293 161.8 28.2002 161.8 28.9385H159.585C159.585 28.2705 159.374 27.749 158.952 27.374C158.536 26.9932 157.938 26.8027 157.159 26.8027C156.433 26.8027 155.867 26.958 155.463 27.2686C155.064 27.5791 154.865 28.0127 154.865 28.5693C154.865 29.0381 155.082 29.4307 155.516 29.7471C155.949 30.0576 156.664 30.3623 157.66 30.6611C158.656 30.9541 159.456 31.291 160.06 31.6719C160.663 32.0469 161.105 32.4805 161.387 32.9727C161.668 33.459 161.809 34.0303 161.809 34.6865C161.809 35.7529 161.398 36.6025 160.578 37.2354C159.764 37.8623 158.656 38.1758 157.256 38.1758C156.33 38.1758 155.478 38.0059 154.698 37.666C153.925 37.3203 153.321 36.8457 152.888 36.2422C152.46 35.6387 152.246 34.9355 152.246 34.1328H154.47C154.47 34.8594 154.71 35.4219 155.19 35.8203C155.671 36.2188 156.359 36.418 157.256 36.418C158.029 36.418 158.609 36.2627 158.996 35.9521C159.389 35.6357 159.585 35.2197 159.585 34.7041ZM165.825 38H163.689V28.4902H165.825V38ZM163.558 26.0205C163.558 25.6924 163.66 25.4199 163.865 25.2031C164.076 24.9863 164.375 24.8779 164.762 24.8779C165.148 24.8779 165.447 24.9863 165.658 25.2031C165.869 25.4199 165.975 25.6924 165.975 26.0205C165.975 26.3428 165.869 26.6123 165.658 26.8291C165.447 27.04 165.148 27.1455 164.762 27.1455C164.375 27.1455 164.076 27.04 163.865 26.8291C163.66 26.6123 163.558 26.3428 163.558 26.0205ZM167.785 33.1748C167.785 31.6982 168.131 30.5205 168.822 29.6416C169.52 28.7568 170.442 28.3145 171.591 28.3145C172.675 28.3145 173.527 28.6924 174.148 29.4482L174.245 28.4902H176.17V37.71C176.17 38.958 175.78 39.9424 175.001 40.6631C174.228 41.3838 173.182 41.7441 171.863 41.7441C171.166 41.7441 170.483 41.5977 169.815 41.3047C169.153 41.0176 168.649 40.6396 168.304 40.1709L169.314 38.8877C169.971 39.667 170.779 40.0566 171.74 40.0566C172.449 40.0566 173.009 39.8633 173.419 39.4766C173.829 39.0957 174.034 38.5332 174.034 37.7891V37.1475C173.419 37.833 172.599 38.1758 171.573 38.1758C170.46 38.1758 169.549 37.7334 168.84 36.8486C168.137 35.9639 167.785 34.7393 167.785 33.1748ZM169.912 33.3594C169.912 34.3145 170.105 35.0674 170.492 35.6182C170.885 36.1631 171.427 36.4355 172.118 36.4355C172.979 36.4355 173.618 36.0664 174.034 35.3281V31.1445C173.63 30.4238 172.997 30.0635 172.136 30.0635C171.433 30.0635 170.885 30.3418 170.492 30.8984C170.105 31.4551 169.912 32.2754 169.912 33.3594ZM180.354 28.4902L180.415 29.5889C181.118 28.7393 182.041 28.3145 183.184 28.3145C185.164 28.3145 186.172 29.4482 186.207 31.7158V38H184.071V31.8389C184.071 31.2354 183.939 30.79 183.676 30.5029C183.418 30.21 182.993 30.0635 182.401 30.0635C181.54 30.0635 180.898 30.4531 180.477 31.2324V38H178.341V28.4902H180.354ZM195.146 38H193.01V28.4902H195.146V38ZM192.878 26.0205C192.878 25.6924 192.98 25.4199 193.186 25.2031C193.396 24.9863 193.695 24.8779 194.082 24.8779C194.469 24.8779 194.768 24.9863 194.979 25.2031C195.189 25.4199 195.295 25.6924 195.295 26.0205C195.295 26.3428 195.189 26.6123 194.979 26.8291C194.768 27.04 194.469 27.1455 194.082 27.1455C193.695 27.1455 193.396 27.04 193.186 26.8291C192.98 26.6123 192.878 26.3428 192.878 26.0205ZM199.461 28.4902L199.522 29.5889C200.226 28.7393 201.148 28.3145 202.291 28.3145C204.271 28.3145 205.279 29.4482 205.314 31.7158V38H203.179V31.8389C203.179 31.2354 203.047 30.79 202.783 30.5029C202.525 30.21 202.101 30.0635 201.509 30.0635C200.647 30.0635 200.006 30.4531 199.584 31.2324V38H197.448V28.4902H199.461Z" fill="#B6BCBF"/>
</svg>
